PathFileType  4	(X/Y/Z) C:\Users\antoi\Documents\MyRepositories\mobilecap\ResultsAnalysis
DataRate	CameraRate	NumFrames	NumMarkers	Units	OrigDataRate	OrigDataStartFrame	OrigNumFrames
100.0	100.0	4	51	mm	100.0	1	139
Frame#	Time	r_knee			r_shank_antsup			r_ankle			r_calc			r_5meta			r_toe			L_knee			L_shank_antsup			L_ankle			L_calc			L_5meta			L_toe			r_sh2			r_sh3			r_sh4			L_sh2			L_sh3			r_thigh1			r_thigh2			r_thigh3			r_thigh4			r_thigh5			L_thigh1			L_thigh2			L_thigh3			L_thigh4			r.ASIS			r.PSIS			L.ASIS			L.PSIS			C7			R_Shoulder			L_Shoulder			R_Sternum			L_Sternum			R_humerus			R_elbow_med			R_elbow_lat			R_forearm			R_wrist_radius			R_wrist_ulna			L_humerus			L_elbow_med			L_elbow_lat			L_forearm			L_wrist_radius			L_wrist_ulna			R_HJC			L_HJC			R_HJC_reg			L_HJC_reg			
		X1	Y1	Z1	X2	Y2	Z2	X3	Y3	Z3	X4	Y4	Z4	X5	Y5	Z5	X6	Y6	Z6	X7	Y7	Z7	X8	Y8	Z8	X9	Y9	Z9	X10	Y10	Z10	X11	Y11	Z11	X12	Y12	Z12	X13	Y13	Z13	X14	Y14	Z14	X15	Y15	Z15	X16	Y16	Z16	X17	Y17	Z17	X18	Y18	Z18	X19	Y19	Z19	X20	Y20	Z20	X21	Y21	Z21	X22	Y22	Z22	X23	Y23	Z23	X24	Y24	Z24	X25	Y25	Z25	X26	Y26	Z26	X27	Y27	Z27	X28	Y28	Z28	X29	Y29	Z29	X30	Y30	Z30	X31	Y31	Z31	X32	Y32	Z32	X33	Y33	Z33	X34	Y34	Z34	X35	Y35	Z35	X36	Y36	Z36	X37	Y37	Z37	X38	Y38	Z38	X39	Y39	Z39	X40	Y40	Z40	X41	Y41	Z41	X42	Y42	Z42	X43	Y43	Z43	X44	Y44	Z44	X45	Y45	Z45	X46	Y46	Z46	X47	Y47	Z47	X48	Y48	Z48	X49	Y49	Z49	X50	Y50	Z50	X51	Y51	Z51	

1	0.00000000	-79.55141	519.23868	-70.95034	-29.60858	459.48085	-63.74046	80.73409	111.26427	-93.57117	48.77033	41.20923	-141.24917	244.93139	105.87791	-68.76013	257.70571	149.43190	-124.18329	-364.06395	512.77973	-338.91801	-383.31776	387.98596	-339.59949	-571.26648	115.81993	-302.09293	-653.45945	82.75649	-267.73870	-416.97818	51.97452	-259.93226	-431.02768	29.66024	-328.46238	16.52695	356.77753	-57.78562	-100.36919	432.04111	-41.04290	-59.56417	322.13206	-48.53200	-460.05642	432.75736	-359.87844	-510.84102	323.29182	-355.12381	-119.13801	835.76424	-40.66924	-76.24312	735.94650	-53.71584	-114.42453	692.09851	-19.86328	-220.99213	787.45764	-30.52542	-172.30360	684.04820	-28.41585	-220.73068	816.87071	-379.98973	-238.39956	681.88770	-365.44800	-338.12528	831.28125	-379.67683	-349.49800	691.37029	-369.58022	-137.39615	1012.92931	-92.78522	-340.70353	1059.72709	-143.50752	-165.55368	1005.17098	-350.88169	-351.74907	1063.43139	-246.52475	-336.20016	1566.53926	-216.69097	-276.13797	1512.16815	-39.69647	-266.23784	1534.41268	-376.43194	-185.35818	1490.94059	-183.47087	-184.00980	1491.05039	-237.52822	-322.91335	1244.49776	47.89892	-375.11164	1157.87716	-21.23059	-356.57224	1164.26048	60.67311	-316.48886	1010.14128	80.96710	-295.66731	894.15297	73.79248	-337.30111	903.69899	94.07049	-201.04133	1296.87734	-491.28865	-227.95296	1182.85896	-455.24413	-194.28818	1208.15857	-513.94473	-42.28635	1115.15513	-499.78576	39.98467	1070.21972	-471.12181	21.83951	1041.25092	-494.10108	-227.17509	938.20779	-85.98342	-253.53009	934.68054	-314.81017	-218.18431	931.98266	-123.84416	-236.44881	938.10833	-294.18835	
2	0.01000000	-66.66115	518.26802	-71.18684	-17.64327	457.48270	-64.40753	85.60348	108.54528	-94.83544	50.90123	40.75728	-141.69267	249.97167	98.27378	-71.86204	264.07414	141.11766	-127.46612	-350.49077	511.55995	-337.61468	-372.46386	387.09643	-339.33188	-567.89645	120.22274	-302.31796	-651.06583	89.92435	-267.82494	-416.52493	51.75479	-259.94703	-430.88867	29.40164	-328.47604	26.83534	353.82733	-59.26339	-88.44484	431.12000	-40.73249	-49.69139	320.62352	-48.68314	-447.78019	433.87477	-360.03481	-501.83379	326.04517	-354.85933	-101.66133	836.10576	-39.90624	-59.51307	736.02105	-53.43162	-98.17037	691.27679	-20.81547	-204.21918	788.46934	-29.85711	-155.96483	684.73163	-29.37548	-206.02937	815.56682	-378.40387	-223.55439	680.52578	-364.08275	-323.41739	829.81575	-378.42299	-334.64193	689.95962	-368.17942	-122.69942	1013.37650	-90.81946	-326.00529	1058.89888	-142.93355	-150.38981	1003.55355	-349.23167	-337.04757	1062.17902	-245.83265	-322.83750	1565.59658	-215.41689	-262.69541	1511.24442	-38.41844	-252.82842	1533.61581	-375.16627	-171.77466	1490.14296	-182.14941	-170.37687	1490.29431	-236.19187	-309.12015	1243.35604	48.73183	-360.96113	1156.83891	-20.55511	-342.63761	1163.12966	61.35831	-303.05893	1009.00060	81.94940	-282.66495	892.98479	74.92594	-324.26934	902.73589	95.25204	-188.17008	1295.77777	-489.59870	-215.41763	1181.83157	-453.43338	-181.68560	1207.00015	-512.18410	-30.38602	1113.05954	-498.18427	51.64479	1067.25515	-469.42191	33.34335	1038.66769	-492.57174	-212.39510	938.37829	-83.99397	-238.09565	933.07552	-312.84834	-202.86003	931.29654	-121.65151	-221.16730	936.73165	-292.24885	
3	0.02000000	-54.04435	517.37703	-71.33077	-5.80430	455.63838	-65.04555	90.59870	106.00378	-96.03708	53.07491	40.63951	-142.13425	254.85921	90.75788	-74.80214	270.37191	132.90148	-130.54534	-336.42202	510.44282	-336.54116	-361.28991	386.39792	-339.22011	-564.21112	124.91587	-302.51062	-648.26952	97.54999	-267.79452	-416.07951	51.40117	-259.97734	-430.76957	29.15120	-328.45738	37.15646	351.10348	-60.67468	-76.55818	430.24381	-40.38771	-39.75535	319.22531	-48.81560	-435.21993	435.23537	-360.08580	-492.51319	329.08245	-354.54078	-84.38745	836.40687	-39.16508	-43.10745	735.98351	-53.15510	-82.31459	690.56132	-21.72714	-187.66733	789.55343	-29.17694	-139.93014	685.44522	-30.33353	-191.10792	814.40228	-376.79859	-208.41320	679.29437	-362.77427	-308.49292	828.43201	-377.07860	-319.48395	688.60766	-366.77555	-107.89938	1013.94470	-88.88483	-311.21766	1058.21053	-142.29873	-135.10612	1002.09017	-347.58514	-322.23430	1061.06050	-245.09407	-309.47686	1564.76696	-214.11896	-249.25257	1510.45045	-37.11585	-239.40514	1532.90684	-373.87446	-158.19415	1489.48843	-180.81016	-156.76077	1489.66878	-234.83336	-295.24793	1242.33039	49.60175	-346.70826	1155.90732	-19.84944	-328.62063	1162.11585	62.07926	-289.48025	1007.97991	82.94478	-269.42041	891.94858	76.07098	-311.01391	901.88321	96.43199	-175.36421	1294.74541	-487.88930	-202.99525	1180.90287	-451.60170	-169.18136	1205.90327	-510.39295	-18.68362	1110.93762	-496.58018	63.08276	1064.20094	-467.74532	44.62782	1035.99452	-491.04981	-197.49570	938.66926	-82.00512	-222.56656	931.62557	-310.88115	-187.45758	930.77136	-119.49248	-205.76594	935.50353	-290.32908	
4	0.03000000	-41.85970	516.66159	-71.28983	5.83084	454.07791	-65.59153	95.76556	103.76495	-97.10387	55.30573	41.07670	-142.55559	259.45592	83.38985	-77.42265	276.51508	124.84152	-133.23721	-321.45710	509.50457	-335.87962	-349.51490	386.04875	-339.42376	-559.92648	130.14528	-302.65470	-644.70583	106.03106	-267.55677	-415.61697	50.83720	-260.03817	-430.68664	28.92532	-328.37897	47.48079	348.77915	-61.92803	-64.73825	429.48139	-39.94239	-29.74322	318.04910	-48.86444	-422.11095	437.04772	-359.95021	-482.59873	332.64629	-354.13449	-67.53351	836.67440	-38.46794	-27.29490	735.79535	-52.87812	-67.13745	690.05978	-22.48558	-171.54133	790.77494	-28.44502	-124.44222	686.22904	-31.19416	-175.78232	813.49549	-375.16150	-192.71933	678.30279	-361.58274	-293.16998	827.19187	-375.58267	-303.76434	687.35865	-365.38849	-92.93221	1014.72803	-87.00790	-296.28538	1057.78799	-141.56121	-119.61715	1000.91472	-345.94847	-307.22924	1060.18250	-244.28014	-296.11966	1564.14874	-212.77870	-235.80809	1509.89424	-35.77030	-225.96517	1532.36633	-372.54019	-144.62256	1489.10240	-179.43854	-143.17337	1489.28915	-233.43910	-281.23234	1241.52086	50.53939	-332.27365	1155.17295	-19.08469	-314.45302	1161.31696	62.86687	-275.62587	1007.18044	83.96430	-255.72207	891.15449	77.23849	-297.35766	901.23000	97.60660	-162.67938	1293.84160	-486.14336	-190.77777	1180.15838	-449.73148	-156.85650	1204.92340	-508.54443	-7.33734	1108.76556	-494.97092	74.12113	1060.98852	-466.11184	55.50469	1033.16154	-489.54082	-182.40115	939.17900	-80.02392	-206.87921	930.46271	-308.91195	-171.94428	930.56248	-117.38961	-190.16719	934.54544	-288.44155	
